<svg width="450" height="450" viewBox="0 0 450 450" fill="none" xmlns="http://www.w3.org/2000/svg">
<g clip-path="url(#clip0_1_2)">
<path d="M346.741 79.1175L331.239 28.5025L381.933 13L397.435 63.615L346.741 79.1175ZM255.21 51.69L270.712 102.331L321.407 86.8555L305.905 36.2405L255.21 51.69ZM194.684 125.546L179.208 74.9305L229.876 59.4545L245.379 110.07L194.684 125.546ZM103.179 98.1445L118.656 148.76L169.35 133.31L153.848 82.6685L103.179 98.1445ZM27.151 121.385L42.627 172L93.3215 156.524L77.819 105.909L27.151 121.385ZM92.5 198.5H39.5V384C39.5 398.056 45.0839 411.537 55.0233 421.477C64.9628 431.416 78.4435 437 92.5 437H357.5C371.556 437 385.037 431.416 394.977 421.477C404.916 411.537 410.5 398.056 410.5 384V198.5H357.5V384H92.5V198.5Z" fill="#6441A5"/>
<path d="M172 198.5H119V251.5H172V198.5ZM198.5 198.5H251.5V251.5H198.5V198.5ZM331 198.5H278V251.5H331V198.5Z" fill="#6441A5"/>
<rect x="77.7778" y="250.911" width="294.444" height="153.111" fill="#6441A5"/>
<rect x="42.59" y="171.73" width="370.953" height="53.5227" transform="rotate(-16.945 42.59 171.73)" fill="#6441A5"/>
<mask id="path-5-outside-1_1_2" maskUnits="userSpaceOnUse" x="121.667" y="81.1333" width="208" height="289" fill="black">
<rect fill="white" x="121.667" y="81.1333" width="208" height="289"/>
<path d="M246.232 89.0043C264.774 89.0043 281.03 91.6713 295 97.0053C309.224 102.085 316.336 109.07 316.336 117.96C316.336 126.85 312.907 137.899 306.049 151.107C299.445 164.061 293.857 170.538 289.285 170.538C288.015 170.538 286.491 169.903 284.713 168.633C283.189 167.109 279.379 165.585 273.283 164.061C267.441 162.283 262.361 161.394 258.043 161.394C243.311 161.394 231.373 166.601 222.229 177.015C213.339 187.429 208.894 203.431 208.894 225.021C208.894 246.357 213.466 262.232 222.61 272.646C232.008 283.06 243.819 288.267 258.043 288.267C263.885 288.267 270.362 287.505 277.474 285.981C284.84 284.203 290.047 281.79 293.095 278.742C293.603 278.234 294.619 277.98 296.143 277.98C297.667 277.98 300.461 280.901 304.525 286.743C308.843 292.331 312.78 299.824 316.336 309.222C319.892 318.366 321.67 325.478 321.67 330.558C321.67 340.464 314.05 348.338 298.81 354.18C283.57 360.022 265.536 362.943 244.708 362.943C211.18 362.943 183.621 351.132 162.031 327.51C140.441 303.888 129.646 270.614 129.646 227.688C129.646 184.508 140.695 150.599 162.793 125.961C185.145 101.323 212.958 89.0043 246.232 89.0043Z"/>
</mask>
<path d="M246.232 89.0043C264.774 89.0043 281.03 91.6713 295 97.0053C309.224 102.085 316.336 109.07 316.336 117.96C316.336 126.85 312.907 137.899 306.049 151.107C299.445 164.061 293.857 170.538 289.285 170.538C288.015 170.538 286.491 169.903 284.713 168.633C283.189 167.109 279.379 165.585 273.283 164.061C267.441 162.283 262.361 161.394 258.043 161.394C243.311 161.394 231.373 166.601 222.229 177.015C213.339 187.429 208.894 203.431 208.894 225.021C208.894 246.357 213.466 262.232 222.61 272.646C232.008 283.06 243.819 288.267 258.043 288.267C263.885 288.267 270.362 287.505 277.474 285.981C284.84 284.203 290.047 281.79 293.095 278.742C293.603 278.234 294.619 277.98 296.143 277.98C297.667 277.98 300.461 280.901 304.525 286.743C308.843 292.331 312.78 299.824 316.336 309.222C319.892 318.366 321.67 325.478 321.67 330.558C321.67 340.464 314.05 348.338 298.81 354.18C283.57 360.022 265.536 362.943 244.708 362.943C211.18 362.943 183.621 351.132 162.031 327.51C140.441 303.888 129.646 270.614 129.646 227.688C129.646 184.508 140.695 150.599 162.793 125.961C185.145 101.323 212.958 89.0043 246.232 89.0043Z" fill="white"/>
<path d="M295 97.0053L292.503 103.545L292.574 103.572L292.645 103.598L295 97.0053ZM306.049 151.107L299.836 147.882L299.824 147.905L299.813 147.928L306.049 151.107ZM284.713 168.633L279.763 173.583L280.173 173.993L280.644 174.329L284.713 168.633ZM273.283 164.061L271.245 170.758L271.414 170.809L271.585 170.852L273.283 164.061ZM222.229 177.015L216.969 172.397L216.937 172.433L216.905 172.47L222.229 177.015ZM222.61 272.646L217.35 277.265L217.381 277.301L217.413 277.336L222.61 272.646ZM277.474 285.981L278.941 292.826L279.029 292.807L279.116 292.786L277.474 285.981ZM304.525 286.743L298.779 290.741L298.879 290.885L298.986 291.023L304.525 286.743ZM316.336 309.222L309.789 311.7L309.8 311.73L309.812 311.759L316.336 309.222ZM298.81 354.18L301.315 360.717L298.81 354.18ZM162.031 327.51L156.864 332.233L156.864 332.233L162.031 327.51ZM162.793 125.961L157.608 121.258L157.595 121.273L157.582 121.287L162.793 125.961ZM246.232 96.0043C264.118 96.0043 279.496 98.5785 292.503 103.545L297.497 90.4658C282.564 84.7641 265.43 82.0043 246.232 82.0043V96.0043ZM292.645 103.598C306.262 108.461 309.336 113.815 309.336 117.96H323.336C323.336 104.325 312.186 95.7101 297.354 90.4131L292.645 103.598ZM309.336 117.96C309.336 125.212 306.483 135.08 299.836 147.882L312.261 154.333C319.331 140.718 323.336 128.489 323.336 117.96H309.336ZM299.813 147.928C296.615 154.201 293.865 158.489 291.605 161.108C289.078 164.036 288.336 163.538 289.285 163.538V177.538C294.806 177.538 299.143 173.802 302.205 170.253C305.533 166.396 308.879 160.968 312.285 154.287L299.813 147.928ZM289.285 163.538C289.806 163.538 290.035 163.664 289.882 163.601C289.733 163.539 289.371 163.358 288.781 162.937L280.644 174.329C282.846 175.902 285.837 177.538 289.285 177.538V163.538ZM289.663 163.684C287.867 161.888 285.445 160.701 283.312 159.848C281.003 158.924 278.193 158.073 274.981 157.27L271.585 170.852C274.469 171.573 276.612 172.246 278.113 172.847C279.789 173.517 280.034 173.854 279.763 173.583L289.663 163.684ZM275.321 157.365C269.068 155.462 263.272 154.394 258.043 154.394V168.394C261.45 168.394 265.813 169.105 271.245 170.758L275.321 157.365ZM258.043 154.394C241.44 154.394 227.534 160.364 216.969 172.397L227.489 181.634C235.212 172.838 245.181 168.394 258.043 168.394V154.394ZM216.905 172.47C206.461 184.705 201.894 202.675 201.894 225.021H215.894C215.894 204.188 220.217 190.154 227.553 181.56L216.905 172.47ZM201.894 225.021C201.894 247.177 206.615 265.039 217.35 277.265L227.87 268.028C220.317 259.425 215.894 245.538 215.894 225.021H201.894ZM217.413 277.336C228.159 289.244 241.869 295.267 258.043 295.267V281.267C245.768 281.267 235.856 276.876 227.807 267.957L217.413 277.336ZM258.043 295.267C264.48 295.267 271.458 294.429 278.941 292.826L276.007 279.137C269.265 280.581 263.289 281.267 258.043 281.267V295.267ZM279.116 292.786C286.908 290.905 293.63 288.107 298.045 283.692L288.145 273.793C286.464 275.474 282.772 277.502 275.831 279.177L279.116 292.786ZM298.045 283.692C297.082 284.655 296.129 284.913 295.936 284.962C295.699 285.021 295.719 284.98 296.143 284.98V270.98C295.043 270.98 293.792 271.067 292.54 271.38C291.33 271.682 289.616 272.322 288.145 273.793L298.045 283.692ZM296.143 284.98C295.229 284.98 294.55 284.766 294.193 284.624C293.831 284.481 293.629 284.344 293.602 284.326C293.57 284.304 293.802 284.465 294.323 285.01C295.349 286.083 296.823 287.93 298.779 290.741L310.271 282.746C308.162 279.715 306.207 277.18 304.44 275.333C303.563 274.416 302.558 273.482 301.446 272.73C300.48 272.077 298.601 270.98 296.143 270.98V284.98ZM298.986 291.023C302.743 295.886 306.383 302.699 309.789 311.7L322.883 306.745C319.176 296.949 314.942 288.776 310.064 282.463L298.986 291.023ZM309.812 311.759C313.291 320.705 314.67 326.822 314.67 330.558H328.67C328.67 324.135 326.493 316.028 322.86 306.685L309.812 311.759ZM314.67 330.558C314.67 335.914 310.804 342.086 296.304 347.644L301.315 360.717C317.295 354.591 328.67 345.014 328.67 330.558H314.67ZM296.304 347.644C282.051 353.108 264.905 355.943 244.708 355.943V369.943C266.166 369.943 285.089 366.937 301.315 360.717L296.304 347.644ZM244.708 355.943C213.04 355.943 187.392 344.882 167.198 322.788L156.864 332.233C179.85 357.382 209.32 369.943 244.708 369.943V355.943ZM167.198 322.788C147.141 300.843 136.646 269.473 136.646 227.688H122.646C122.646 271.755 133.741 306.934 156.864 332.233L167.198 322.788ZM136.646 227.688C136.646 185.695 147.373 153.638 168.004 130.635L157.582 121.287C134.017 147.561 122.646 183.322 122.646 227.688H136.646ZM167.977 130.665C189.002 107.49 214.932 96.0043 246.232 96.0043V82.0043C210.984 82.0043 181.288 95.157 157.608 121.258L167.977 130.665Z" fill="white" mask="url(#path-5-outside-1_1_2)"/>
</g>
<defs>
<clipPath id="clip0_1_2">
<rect width="450" height="450" fill="white"/>
</clipPath>
</defs>
</svg>
